<svg width="24" height="24" viewBox="0 0 24 24" fill="none" xmlns="http://www.w3.org/2000/svg">
<path d="M3 12.0452C3 16.1081 5.70534 19.5379 9.40044 20.7126C9.99428 20.9014 10.5605 20.4272 10.5605 19.8041V15.0778C10.5605 14.8017 10.3367 14.5778 10.0605 14.5778H8.81055C8.5344 14.5778 8.31055 14.354 8.31055 14.0778V12.5451C8.31055 12.269 8.5344 12.0451 8.81055 12.0451H10.0605C10.3367 12.0451 10.5605 11.8213 10.5605 11.5451V10.0552C10.5605 7.79389 12.0005 6.52756 14.0705 6.52756C14.5612 6.52756 15.1065 6.58243 15.6213 6.64943C15.8679 6.68152 16.0505 6.89311 16.0505 7.1418V8.515C16.0505 8.79114 15.8267 9.015 15.5505 9.015H14.8805C13.8005 9.015 13.5305 9.55771 13.5305 10.2813V11.5451C13.5305 11.8213 13.7544 12.0451 14.0305 12.0451H15.3292C15.6369 12.0451 15.8715 12.3203 15.823 12.6241L15.5779 14.1568C15.5391 14.3993 15.3298 14.5778 15.0841 14.5778H14.0282C13.753 14.5778 13.5295 14.8002 13.5282 15.0754L13.5057 19.7983C13.5027 20.4234 14.0701 20.9007 14.6655 20.7104C18.3478 19.5336 21 16.1056 21 12.0452C21 7.07035 16.95 3 12 3C7.05 3 3 7.07035 3 12.0452Z" stroke="#2D2E5B" stroke-width="1.25" stroke-linecap="round"/>
</svg>
